<svg width="101" height="100" viewBox="0 0 101 100" fill="none" xmlns="http://www.w3.org/2000/svg">
<g clip-path="url(#clip0_28_48)">
<rect x="0.13916" width="100" height="100" rx="5.66038" fill="#EEEEEE"/>
<g clip-path="url(#clip1_28_48)">
<path d="M30.5215 21.4887C31.3143 12.7159 46.614 12.7134 52.9726 12.9643C58.6605 13.1894 68.5463 14.3308 69.1191 21.5922C69.7869 30.0607 58.6747 38.6797 54.0117 44.7807C48.6944 51.7376 55.0598 55.9667 59.5762 60.7719C65.8657 67.4635 74.7626 80.069 60.7109 84.2123C54.2624 86.1141 39.3488 86.4481 34.916 80.3823C29.1363 72.4734 42.5642 68.5152 46.418 64.1313C49.4117 60.7261 49.8441 54.0435 49.5098 49.6762C49.1392 44.8329 42.5892 39.197 39.6064 35.4233C39.2886 35.0206 38.577 34.1692 38.3818 33.7582C38.2817 33.5466 38.1255 33.104 38.498 33.1205C38.8708 33.1372 39.6435 33.4125 40.1006 33.4848C43.3175 33.9927 45.9786 33.6362 49.1182 32.9682C52.0976 32.3342 56.3369 30.8642 59.3174 31.7075C62.7366 32.6739 59.2236 36.632 58.0273 38.06C55.6588 40.8848 50.4635 45.6508 50.1318 49.3657C49.9017 51.9458 50.17 54.504 49.8057 57.1967C48.6249 65.9228 44.0327 66.4753 37.9199 70.9106C34.7638 73.2006 32.6265 76.6962 35.5762 80.2387C40.2693 85.8737 54.5445 85.5159 60.9434 83.516C73.222 79.6793 65.6733 68.344 60.0918 62.2172C57.2071 59.0516 50.9373 53.9932 51.2676 49.3657C51.5548 45.3463 56.6586 41.043 59.2666 38.1635C65.1836 31.6309 75.8371 18.5637 61.0713 14.6723C54.692 12.9904 43.1787 12.9796 36.9697 15.2397C24.8725 19.6413 34.4228 31.628 39.6533 37.4409C42.284 40.3637 47.9643 45.2575 48.2764 49.2573C48.6593 54.1667 42.3781 59.0274 39.3437 62.4242C34.3392 68.0266 27.4683 77.2782 36.2471 83.0776C41.6974 86.6787 49.7399 87.1481 56.0478 86.2592C59.9708 85.7058 63.6301 84.1017 67.6201 83.9994L102.56 84.0043V84.52H102.559L69.4756 84.5151C63.603 84.5037 58.4528 86.9524 52.5586 87.2084C39.3387 87.7825 24.475 81.8211 35.1416 66.6869C37.7753 62.9507 40.9073 60.2001 43.8867 56.852C48.8779 51.2425 48.9638 48.5986 43.9902 42.9096C39.3757 37.6315 29.83 29.1445 30.5215 21.4887Z" fill="#313131"/>
</g>
</g>
<defs>
<clipPath id="clip0_28_48">
<rect x="0.13916" width="100" height="100" rx="5.66038" fill="white"/>
</clipPath>
<clipPath id="clip1_28_48">
<rect width="72.0876" height="74.3348" fill="white" transform="translate(30.4854 12.8973)"/>
</clipPath>
</defs>
</svg>
