<svg width="100" height="100" viewBox="0 0 100 100" fill="none" xmlns="http://www.w3.org/2000/svg">
<g clip-path="url(#clip0_28_53)">
<rect width="100" height="100" rx="5.66038" fill="#313131"/>
<g clip-path="url(#clip1_28_53)">
<path d="M30.0029 21.489C30.7956 12.7159 46.0954 12.7136 52.4541 12.9645C58.1419 13.1897 68.0278 14.3311 68.6006 21.5925C69.268 30.0608 58.156 38.6801 53.4931 44.781C48.176 51.7378 54.5403 55.967 59.0566 60.7722C65.3461 67.4637 74.2442 80.0692 60.1924 84.2126C53.7439 86.1144 38.8302 86.4474 34.3974 80.3815C28.6183 72.4729 42.0456 68.5154 45.8994 64.1315C48.8933 60.7263 49.3256 54.0428 48.9912 49.6755C48.6205 44.8321 42.0696 39.1972 39.0869 35.4235C38.769 35.0208 38.0583 34.1684 37.8633 33.7575C37.7632 33.5458 37.6065 33.1045 37.9785 33.1208C38.3511 33.1373 39.1248 33.4118 39.582 33.4841C42.7987 33.992 45.4593 33.6364 48.5986 32.9685C51.5782 32.3345 55.8182 30.8642 58.7988 31.7077C62.2181 32.6741 58.705 36.6323 57.5088 38.0602C55.1401 40.8851 49.9446 45.6511 49.6133 49.3659C49.3831 51.946 49.6513 54.5034 49.2871 57.196C48.1064 65.9226 43.5134 66.4753 37.4004 70.9108C34.2445 73.2008 32.1075 76.6958 35.0566 80.238C39.7495 85.8733 54.0259 85.5153 60.4248 83.5153C72.703 79.6785 65.1547 68.3442 59.5732 62.2175C56.6886 59.0519 50.4187 53.9935 50.749 49.3659C51.036 45.3466 56.1389 41.0433 58.7471 38.1638C64.6639 31.6313 75.3184 18.5641 60.5527 14.6726C54.1734 12.9906 42.6602 12.9788 36.4512 15.239C24.3532 19.6405 33.9042 31.6282 39.1347 37.4411C41.7656 40.3641 47.4461 45.2578 47.7578 49.2575C48.1407 54.1669 41.8596 59.0267 38.8252 62.4235C33.8206 68.0258 26.9489 77.2783 35.7275 83.0778C41.1779 86.6791 49.2212 87.1475 55.5293 86.2585C59.4522 85.7051 63.1115 84.1019 67.1015 83.9997L102.041 84.0036V84.5202H102.04L68.957 84.5153C63.0845 84.504 57.9342 86.9526 52.04 87.2087C38.8202 87.7827 23.956 81.8211 34.6221 66.6872C37.2559 62.9506 40.3885 60.1996 43.3681 56.8513C48.3592 51.2418 48.4452 48.5988 43.4717 42.9099C38.8572 37.6318 29.3115 29.1448 30.0029 21.489Z" fill="#EEEEEE"/>
</g>
</g>
<defs>
<clipPath id="clip0_28_53">
<rect width="100" height="100" rx="5.66038" fill="white"/>
</clipPath>
<clipPath id="clip1_28_53">
<rect width="72.0876" height="74.3348" fill="white" transform="translate(29.9678 12.8973)"/>
</clipPath>
</defs>
</svg>
