<svg width="699" height="721" viewBox="0 0 699 721" fill="none" xmlns="http://www.w3.org/2000/svg">
<path d="M0.345215 83.2113C8.02521 -1.75865 156.265 -1.77924 217.875 0.650757C272.985 2.83076 368.776 13.8813 374.326 84.2113C380.795 166.231 273.126 249.711 227.946 308.801C176.426 376.181 238.096 417.141 281.856 463.681C342.796 528.491 429.005 650.581 292.856 690.711C230.376 709.131 85.8753 712.361 42.9253 653.611C-13.074 577.011 117.026 538.681 154.366 496.221C183.376 463.241 187.566 398.511 184.326 356.211C180.736 309.301 117.266 254.721 88.3657 218.171C85.2858 214.271 78.3955 206.021 76.5054 202.041C75.5354 199.991 74.0155 195.711 77.6255 195.871C81.2355 196.031 88.7258 198.691 93.1558 199.391C124.326 204.311 150.106 200.861 180.526 194.391C209.396 188.251 250.476 174.011 279.356 182.181C312.485 191.541 278.446 229.881 266.856 243.711C243.906 271.071 193.566 317.231 190.356 353.211C188.126 378.201 190.726 402.971 187.196 429.051C175.756 513.571 131.256 518.921 72.0259 561.881C41.4459 584.061 20.7359 617.911 49.3159 652.221C94.7861 706.801 233.106 703.331 295.106 683.961C414.075 646.801 340.936 537.021 286.856 477.681C258.906 447.021 198.156 398.031 201.356 353.211C204.136 314.281 253.586 272.601 278.856 244.711C336.186 181.441 439.415 54.8808 296.345 17.1908C234.535 0.90091 122.986 0.791118 62.8257 22.681C-54.3943 65.311 38.1457 181.411 88.8257 237.711C114.316 266.021 169.355 313.422 172.375 352.161C176.085 399.711 115.226 446.781 85.8257 479.681C37.3357 533.941 -29.2441 623.551 55.8159 679.721C108.626 714.601 186.555 719.141 247.675 710.531C285.685 705.171 321.135 689.641 359.795 688.651L698.335 688.691V693.691H698.326L377.776 693.641C320.876 693.531 270.976 717.251 213.866 719.731C85.7757 725.291 -58.244 667.551 45.106 520.971C70.6258 484.781 100.975 458.141 129.845 425.711C178.205 371.381 179.035 345.781 130.845 290.681C86.1352 239.561 -6.3545 157.361 0.345215 83.2113Z" fill="#313131"/>
</svg>
