<svg width="153" height="25" viewBox="0 0 153 25" fill="none" xmlns="http://www.w3.org/2000/svg">
<path d="M80.6567 11.3268C80.6567 8.3548 83.0537 6.86877 87.8476 6.86877C92.89 6.86877 95.4112 8.18918 95.4112 10.83C95.4112 11.0692 95.333 11.2716 95.1765 11.4373C95.0201 11.5937 94.8177 11.6719 94.5692 11.6719H92.5127C91.8502 11.6719 91.2936 11.3959 90.8427 10.8438C90.3918 10.2825 89.5039 10.0018 88.1789 10.0018C86.357 10.0018 85.4461 10.4435 85.4461 11.3268C85.4461 11.7409 85.8003 12.086 86.5088 12.362C87.2265 12.638 88.0961 12.8819 89.1174 13.0935C90.148 13.2959 91.1739 13.5582 92.1953 13.8802C93.2166 14.2023 94.0816 14.7176 94.7901 15.4261C95.5078 16.1254 95.8666 17.0133 95.8666 18.0899C95.8666 21.0619 93.3363 22.5479 88.2755 22.5479C83.2147 22.5479 80.6843 21.2321 80.6843 18.6005C80.6843 18.3521 80.7626 18.1497 80.919 17.9933C81.0846 17.8276 81.2916 17.7448 81.5401 17.7448H83.5966C84.2591 17.7448 84.8158 18.0255 85.2666 18.5867C85.7175 19.1388 86.6054 19.4149 87.9304 19.4149C90.0376 19.4149 91.0911 18.9732 91.0911 18.0899C91.0911 17.6758 90.7323 17.3308 90.0146 17.0547C89.306 16.7787 88.4365 16.5348 87.406 16.3232C86.3754 16.1024 85.3495 15.8355 84.3281 15.5227C83.3159 15.2006 82.451 14.6854 81.7333 13.9768C81.0156 13.2683 80.6567 12.385 80.6567 11.3268Z" fill="#313131"/>
<path d="M66.6868 20.5604C65.2514 19.2354 64.5337 17.2847 64.5337 14.7084C64.5337 12.1228 65.2514 10.1721 66.6868 8.85628C68.1222 7.53128 70.1833 6.86877 72.8702 6.86877C75.5662 6.86877 77.6319 7.53128 79.0673 8.85628C80.5027 10.1721 81.2204 12.1228 81.2204 14.7084C81.2204 17.2847 80.5027 19.2354 79.0673 20.5604C77.6319 21.8854 75.5662 22.5479 72.8702 22.5479C70.1833 22.5479 68.1222 21.8854 66.6868 20.5604ZM70.1787 11.1198C69.6083 11.8651 69.323 13.0567 69.323 14.6946C69.323 16.3324 69.6083 17.5286 70.1787 18.2831C70.7492 19.0376 71.6464 19.4149 72.8702 19.4149C74.1031 19.4149 75.0049 19.0376 75.5754 18.2831C76.1551 17.5286 76.4449 16.3324 76.4449 14.6946C76.4449 13.0567 76.1551 11.8651 75.5754 11.1198C75.0049 10.3745 74.1031 10.0018 72.8702 10.0018C71.6464 10.0018 70.7492 10.3745 70.1787 11.1198Z" fill="#313131"/>
<path d="M48.3555 21.43V8.00055C48.3555 7.75211 48.4337 7.54968 48.5901 7.39325C48.7557 7.22763 48.9582 7.14482 49.1974 7.14482H52.2891C52.5283 7.14482 52.7261 7.22763 52.8826 7.39325C53.0482 7.54968 53.131 7.75211 53.131 8.00055V8.87008C54.7136 7.53588 56.3975 6.86877 58.1826 6.86877C59.9768 6.86877 61.4352 7.41626 62.5578 8.51122C63.6804 9.59699 64.2417 11.2624 64.2417 13.5076V21.43C64.2417 21.6692 64.1589 21.8716 63.9932 22.0373C63.8368 22.1937 63.6344 22.2719 63.3859 22.2719H60.3081C60.0688 22.2719 59.8664 22.1937 59.7008 22.0373C59.5444 21.8716 59.4661 21.6692 59.4661 21.43V13.5076C59.4661 11.3084 58.5874 10.2089 56.8299 10.2089C55.6798 10.2089 54.4468 10.8668 53.131 12.1826V21.43C53.131 21.6692 53.0482 21.8716 52.8826 22.0373C52.7261 22.1937 52.5283 22.2719 52.2891 22.2719H49.1974C48.9582 22.2719 48.7557 22.1937 48.5901 22.0373C48.4337 21.8716 48.3555 21.6692 48.3555 21.43Z" fill="#313131"/>
<path d="M33.5296 20.5604C32.0942 19.2354 31.3765 17.2847 31.3765 14.7084C31.3765 12.1228 32.0942 10.1721 33.5296 8.85628C34.965 7.53128 37.0261 6.86877 39.7129 6.86877C42.4089 6.86877 44.4746 7.53128 45.9101 8.85628C47.3455 10.1721 48.0632 12.1228 48.0632 14.7084C48.0632 17.2847 47.3455 19.2354 45.9101 20.5604C44.4746 21.8854 42.4089 22.5479 39.7129 22.5479C37.0261 22.5479 34.965 21.8854 33.5296 20.5604ZM37.0215 11.1198C36.451 11.8651 36.1658 13.0567 36.1658 14.6946C36.1658 16.3324 36.451 17.5286 37.0215 18.2831C37.592 19.0376 38.4891 19.4149 39.7129 19.4149C40.9459 19.4149 41.8476 19.0376 42.4181 18.2831C42.9978 17.5286 43.2877 16.3324 43.2877 14.6946C43.2877 13.0567 42.9978 11.8651 42.4181 11.1198C41.8476 10.3745 40.9459 10.0018 39.7129 10.0018C38.4891 10.0018 37.592 10.3745 37.0215 11.1198Z" fill="#313131"/>
<path d="M31.2091 10.6505L29.0835 10.5677C27.8413 10.5677 26.6544 11.2486 25.5226 12.6104V21.43C25.5226 21.6784 25.4398 21.8808 25.2742 22.0373C25.1177 22.1937 24.9199 22.2719 24.6807 22.2719H21.589C21.3406 22.2719 21.1381 22.1937 20.9817 22.0373C20.8253 21.8808 20.7471 21.6784 20.7471 21.43V8.00055C20.7471 7.75211 20.8253 7.54968 20.9817 7.39325C21.1473 7.22763 21.3498 7.14482 21.589 7.14482H24.6807C24.9291 7.14482 25.1315 7.22763 25.288 7.39325C25.4444 7.54968 25.5226 7.75211 25.5226 8.00055V8.87008C26.4611 8.18917 27.3629 7.6877 28.2278 7.36565C29.1019 7.0344 30.2429 6.86877 31.6507 6.86877C31.8992 6.86877 32.1016 6.95159 32.258 7.11721C32.4236 7.27364 32.5064 7.47147 32.5064 7.7107V9.80862C32.5064 10.0571 32.4236 10.2595 32.258 10.4159C32.1016 10.5723 31.8992 10.6505 31.6507 10.6505H31.2091Z" fill="#313131"/>
<path d="M21.2968 21.6647C21.2968 22.0696 21.0575 22.272 20.579 22.272H17.4184C17.0595 22.272 16.6731 22.1478 16.259 21.8994C15.8449 21.6417 15.5229 21.3335 15.2928 20.9746L12.8637 17.1238C12.284 16.1853 11.6997 15.4814 11.1108 15.0121C10.5219 14.5336 9.81341 14.2944 8.98529 14.2944H6.01784V21.0022C6.01784 21.3611 5.88902 21.6647 5.63138 21.9132C5.38294 22.1524 5.0793 22.272 4.72044 22.272H2.12565C1.7668 22.272 1.45855 22.1432 1.20091 21.8855C0.943273 21.6187 0.814453 21.3059 0.814453 20.947V3.79101C0.814453 3.43216 0.943273 3.11931 1.20091 2.85247C1.45855 2.58563 1.7668 2.45221 2.12565 2.45221H4.72044C5.0793 2.45221 5.38294 2.58563 5.63138 2.85247C5.88902 3.11931 6.01784 3.43216 6.01784 3.79101V10.4022H8.98529C9.79501 10.4022 10.5035 10.1814 11.1108 9.73971C11.7273 9.29805 12.3116 8.58494 12.8637 7.60039L15.003 3.79101C15.4907 2.90768 16.1532 2.46141 16.9905 2.45221H20.1788C20.6204 2.45221 20.8413 2.64544 20.8413 3.0319C20.8413 3.24353 20.7631 3.49657 20.6066 3.79101L17.6116 9.21523C17.1791 10.0066 16.6915 10.6599 16.1486 11.1751C15.6149 11.6904 14.9156 12.0539 14.0507 12.2655C14.6579 12.3943 15.279 12.7762 15.9139 13.4111C16.558 14.046 17.1239 14.7361 17.6116 15.4814L21.0621 20.9746C21.2185 21.2415 21.2968 21.4715 21.2968 21.6647Z" fill="#313131"/>
<rect x="97.8667" y="0.802399" width="54.3189" height="23.3952" rx="3.14074" fill="#313131"/>
<path d="M148.299 7.78887C148.77 7.78887 149.045 8.06369 149.045 8.5348V16.4652C149.045 16.9363 148.77 17.2111 148.299 17.2111H147.484C147.474 17.2111 147.474 17.2111 147.474 17.2209V18.0748C147.474 18.5067 147.2 18.7815 146.768 18.7815H145.914C145.904 18.7815 145.904 18.7815 145.904 18.7913V19.6059C145.904 20.077 145.629 20.3518 145.158 20.3518H138.837C138.366 20.3518 138.052 20.0378 138.052 19.5667V5.43332C138.052 4.96221 138.366 4.64813 138.837 4.64813H145.158C145.629 4.64813 145.904 4.92295 145.904 5.39406V6.20869C145.904 6.2185 145.904 6.2185 145.914 6.2185H146.768C147.2 6.2185 147.474 6.49332 147.474 6.92517V7.77906C147.474 7.78887 147.474 7.78887 147.484 7.78887H148.299ZM147.474 7.79869C147.474 7.78887 147.474 7.78887 147.465 7.78887H146.611C146.179 7.78887 145.904 7.51406 145.904 7.08221V6.22832C145.904 6.2185 145.904 6.2185 145.894 6.2185H139.632C139.623 6.2185 139.623 6.2185 139.623 6.22832V18.7717C139.623 18.7815 139.623 18.7815 139.632 18.7815H145.894C145.904 18.7815 145.904 18.7815 145.904 18.7717V17.9178C145.904 17.4859 146.179 17.2111 146.611 17.2111H147.465C147.474 17.2111 147.474 17.2111 147.474 17.2013V7.79869Z" fill="#F2F2F2"/>
<path d="M136.681 18.7815C137.152 18.7815 137.427 19.0563 137.427 19.5274V19.6059C137.427 20.077 137.152 20.3518 136.681 20.3518H128.79C128.318 20.3518 128.004 20.0378 128.004 19.5667V5.39406C128.004 4.92295 128.279 4.64813 128.75 4.64813H128.829C129.3 4.64813 129.575 4.92295 129.575 5.39406V18.7717C129.575 18.7815 129.575 18.7815 129.585 18.7815H136.681Z" fill="#F2F2F2"/>
<path d="M126.639 4.64813C127.11 4.64813 127.385 4.92295 127.385 5.39406V19.6059C127.385 20.077 127.11 20.3518 126.639 20.3518H126.56C126.089 20.3518 125.814 20.077 125.814 19.6059V5.39406C125.814 4.92295 126.089 4.64813 126.56 4.64813H126.639Z" fill="#F2F2F2"/>
<path d="M124.449 4.64813C124.92 4.64813 125.195 4.92295 125.195 5.39406V16.4652C125.195 16.9363 124.92 17.2111 124.449 17.2111H123.634C123.624 17.2111 123.624 17.2111 123.624 17.2209V18.0748C123.624 18.5067 123.35 18.7815 122.918 18.7815H122.064C122.054 18.7815 122.054 18.7815 122.054 18.7913V19.6059C122.054 20.077 121.779 20.3518 121.308 20.3518H118.089C117.618 20.3518 117.343 20.077 117.343 19.6059V18.7913C117.343 18.7815 117.343 18.7815 117.333 18.7815H116.479C116.047 18.7815 115.773 18.5067 115.773 18.0748V17.2209C115.773 17.2111 115.773 17.2111 115.763 17.2111H114.948C114.477 17.2111 114.202 16.9363 114.202 16.4652V5.39406C114.202 4.92295 114.477 4.64813 114.948 4.64813H115.027C115.498 4.64813 115.773 4.92295 115.773 5.39406V17.2013C115.773 17.2111 115.773 17.2111 115.782 17.2111H116.636C117.068 17.2111 117.343 17.4859 117.343 17.9178V18.7717C117.343 18.7815 117.343 18.7815 117.353 18.7815H122.044C122.054 18.7815 122.054 18.7815 122.054 18.7717V17.9178C122.054 17.4859 122.329 17.2111 122.761 17.2111H123.615C123.624 17.2111 123.624 17.2111 123.624 17.2013V5.39406C123.624 4.92295 123.899 4.64813 124.37 4.64813H124.449Z" fill="#F2F2F2"/>
<path d="M112 7.79878C112 7.78897 112 7.78897 111.99 7.78897H111.136C110.704 7.78897 110.43 7.51415 110.43 7.0823V6.22841C110.43 6.21859 110.43 6.21859 110.42 6.21859H104.158C104.148 6.21859 104.148 6.21859 104.148 6.22841V7.0823C104.148 7.51415 103.873 7.78897 103.441 7.78897H102.588C102.578 7.78897 102.578 7.78897 102.578 7.79878V17.2014C102.578 17.2112 102.578 17.2112 102.588 17.2112H103.441C103.873 17.2112 104.148 17.486 104.148 17.9179V18.7717C104.148 18.7816 104.148 18.7816 104.158 18.7816H110.42C110.43 18.7816 110.43 18.7816 110.43 18.7717V17.9571C110.43 17.486 110.704 17.2112 111.175 17.2112H111.99C112 17.2112 112 17.2112 112 17.2014V14.0803C112 14.0704 112 14.0705 111.99 14.0705H108.035C107.564 14.0705 107.289 13.7956 107.289 13.3245V13.246C107.289 12.7749 107.564 12.5001 108.035 12.5001H112.785C113.256 12.5001 113.57 12.8142 113.57 13.2853V19.606C113.57 20.0771 113.295 20.3519 112.824 20.3519H112.746C112.275 20.3519 112 20.0771 112 19.606V18.7914C112 18.7816 112 18.7816 111.99 18.7816H110.439C110.43 18.7816 110.43 18.7816 110.43 18.7914V19.606C110.43 20.0771 110.155 20.3519 109.684 20.3519H104.894C104.423 20.3519 104.148 20.0771 104.148 19.606V18.7914C104.148 18.7816 104.148 18.7816 104.138 18.7816H103.284C102.853 18.7816 102.578 18.5067 102.578 18.0749V17.221C102.578 17.2112 102.578 17.2112 102.568 17.2112H101.753C101.282 17.2112 101.007 16.9364 101.007 16.4653V8.53489C101.007 8.06378 101.282 7.78897 101.753 7.78897H102.568C102.578 7.78897 102.578 7.78897 102.578 7.77915V6.92526C102.578 6.49341 102.853 6.21859 103.284 6.21859H104.138C104.148 6.21859 104.148 6.21859 104.148 6.20878V5.39415C104.148 4.92304 104.423 4.64822 104.894 4.64822H109.684C110.155 4.64822 110.43 4.92304 110.43 5.39415V6.20878C110.43 6.21859 110.43 6.21859 110.439 6.21859H111.293C111.725 6.21859 112 6.49341 112 6.92526V7.77915C112 7.78897 112 7.78897 112.01 7.78897H112.864C113.295 7.78897 113.57 8.06378 113.57 8.49563V8.65267C113.57 9.08452 113.295 9.35934 112.864 9.35934H112.707C112.275 9.35934 112 9.08452 112 8.65267V7.79878Z" fill="#F2F2F2"/>
</svg>
